Simulation
nRows=19
nColumns=15
endheader
time  TH_x TH_y TH_z SC_y  SC_z  SC_x  AC_y  AC_z  AC_x  GH_y  GH_z  GH_yy  EL_x  PS_y
4.8020000000000005  0.000000  0.000000  0.000000  -37.26111091613818  12.32902984951469  17.055521969247742  54.8280172318132  20.4136965632841  15.42490329501137  0.7389009568619962  59.48467382114664  2.163544025252645  13.612534228047846  120.000000
4.850020000000001  0.000000  0.000000  0.000000  -37.25522374426728  12.177254871242688  17.106645887767133  54.909908313400784  20.28128400256501  15.027278155933764  1.0027758649606768  59.926112623621464  1.7532897096667255  13.56238187316771  120.000000
4.898040000000001  0.000000  0.000000  0.000000  -37.0953033705692  11.987543516514446  16.894013164307864  54.965483766386505  20.141214829908733  14.469917205671901  1.4127530572697529  60.09772578295217  1.4008142095886031  13.409959761457431  120.000000
4.946060000000001  0.000000  0.000000  0.000000  -36.78098111859355  11.75649016284151  16.407014840718052  55.00428109433516  19.981544056355222  13.753908868355701  1.9542944078399507  59.96295309131921  1.08042531459842  13.200545578334417  120.000000
4.99408  0.000000  0.000000  0.000000  -36.32200142363777  11.477678062891359  15.640442631450778  55.03466789019955  19.79069148724602  12.891289473780953  2.614584099579855  59.49897123532483  0.7650904167842559  12.973637195419435  120.000000
5.0421000000000005  0.000000  0.000000  0.000000  -35.73776615992924  11.141231440079258  14.595747804766106  55.06002884821872  19.55970945187933  11.90717706759577  3.386450569968174  58.70014850599164  0.4317881447531206  12.75939311274792  120.000000
5.090120000000001  0.000000  0.000000  0.000000  -35.05652241559394  10.735705053435964  13.28072225676442  55.07646868468683  19.283438467916664  10.838880474590482  4.270142899701493  57.57689241879048  0.06665407942302143  12.579456754110367  120.000000
5.138140000000001  0.000000  0.000000  0.000000  -34.31406109453626  10.251264956395932  11.708895693288916  55.071798302919895  18.96058362454453  9.733228665980493  5.272801283186835  56.15243193118749  -0.32971138099309977  12.447830700977228  120.000000
5.186160000000001  0.000000  0.000000  0.000000  -33.55028763305821  9.683120306670242  9.899820285833387  55.026781104327426  18.593935120647522  8.643704242869932  6.407139115258978  54.45946448757837  -0.7380931809758335  12.369649289288516  120.000000
5.234180000000001  0.000000  0.000000  0.000000  -32.80385814341734  9.035229800550978  7.88071631627146  54.91832784407453  18.191670152390824  7.625621998018667  7.688063686780887  52.53578088690686  -1.1189531190946957  12.338464173929825  120.000000
5.2822000000000005  0.000000  0.000000  0.000000  -32.107643449725174  8.321114016861099  5.6894253480401975  54.722342584849855  17.768601365859823  6.730971449349995  9.12570503949289  50.41857653519956  -1.4158981959656982  12.336059956234216  120.000000
5.330220000000001  0.000000  0.000000  0.000000  -31.484195645077893  7.564208355300724  3.3766215565762407  54.419433154847724  17.346868031516294  6.002131758525996  10.720130543684437  48.13748137288511  -1.5669060524948744  12.337020722789916  120.000000
5.378240000000001  0.000000  0.000000  0.000000  -30.941816906942815  6.797056201826866  1.0064121720989931  54.00233169565478  16.95516596797337  5.465807581895605  12.461376285322947  45.709449791362886  -1.5218426322130996  12.317017944566661  120.000000
5.426260000000001  0.000000  0.000000  0.000000  -30.47441273134885  6.057771132511077  -1.345250892536403  53.47966096375812  16.625497009295007  5.130208432781085  14.333852685420231  43.138100921665355  -1.2598123223376023  12.261645104049718  120.000000
5.474280000000001  0.000000  0.000000  0.000000  -30.06674129858883  5.386408725309799  -3.5952816296424506  52.87612741897645  16.38892994983998  4.9843898273290455  16.32389509904427  40.41924678430072  -0.8006936255345345  12.171975187691451  120.000000
5.5223  0.000000  0.000000  0.000000  -29.702164344796394  4.820837083842826  -5.660130555970163  52.22872510672558  16.27090724264191  5.001630705064161  18.42853859765036  37.551214495276  -0.20489105607395366  12.063347571634681  120.000000
5.570320000000001  0.000000  0.000000  0.000000  -29.37154845495539  4.391913473349035  -7.46377055174852  51.579633706833114  16.28521506744571  5.1467280127292385  20.66235043319556  34.54718683685489  0.43794776402593616  11.959539815581207  120.000000
5.618340000000001  0.000000  0.000000  0.000000  -29.079812776062745  4.121494608923811  -8.946930920722995  50.97050178675654  16.428463921990254  5.381622727408267  23.060018195669016  31.443420542366823  1.0247477553706783  11.886757760072763  120.000000
5.666360000000001  0.000000  0.000000  0.000000  -28.844721796692642  4.019257288750352  -10.073948038573773  50.438758464368725  16.677886646450954  5.67074387876479  25.676899990301738  28.298692782565094  1.4505465856588449  11.869097896573237  120.000000
